<svg xmlns="http://www.w3.org/2000/svg" width="50" height="50" viewBox="0 0 50 50">
	<path d="M25,50A25,25,0,1,1,50,25,25.033,25.033,0,0,1,25,50ZM46.083,28.421a31.318,31.318,0,0,0-13.3-.913,92.35,92.35,0,0,1,4.15,15.225A21.418,21.418,0,0,0,46.09,28.421ZM33.344,44.688A88.837,88.837,0,0,0,28.781,28.5l-.138.042c-12.062,4.2-16.375,12.552-16.75,13.333a21.3,21.3,0,0,0,21.437,2.817ZM9.135,39.313c.483-.833,6.344-10.531,17.358-14.094.281-.094.563-.175.844-.25-.542-1.219-1.125-2.431-1.733-3.625A78.708,78.708,0,0,1,3.658,24.375l-.008.65A21.288,21.288,0,0,0,9.137,39.306ZM4.094,20.656a79.292,79.292,0,0,0,19.744-2.6,136.4,136.4,0,0,0-7.917-12.35A21.406,21.406,0,0,0,4.1,20.644ZM20,4.275a113.943,113.943,0,0,1,7.963,12.5c7.594-2.844,10.813-7.167,11.194-7.712A21.306,21.306,0,0,0,20,4.269Zm21.531,7.256c-.454.6-4.031,5.194-11.925,8.417.5,1.021.979,2.052,1.417,3.1.167.375.313.75.458,1.1a49.994,49.994,0,0,1,14.875.688,21.133,21.133,0,0,0-4.812-13.292Z" fill="#ea4c89" />
</svg>
