<svg xmlns="http://www.w3.org/2000/svg" width="37.383" height="25" viewBox="0 0 37.383 25"><g transform="translate(0 -101.362)"><path d="M18.739,116.355h.008a1.438,1.438,0,0,0,.786-.231l.061-.039.041-.026.712-.589,17-14.026a.2.2,0,0,0-.159-.082H.2a.192.192,0,0,0-.122.045l17.783,14.657A1.393,1.393,0,0,0,18.739,116.355ZM0,103.349v20.791L12.739,113.85Zm24.658,10.57,12.726,10.226V103.419Zm-4.046,3.338a3.031,3.031,0,0,1-3.736,0l-2.918-2.406L0,126.128v.036a.2.2,0,0,0,.2.2H37.186a.2.2,0,0,0,.2-.2v-.033L23.437,114.925Z" transform="translate(0 0)" fill="#e6a407"/></g></svg>