<svg xmlns="http://www.w3.org/2000/svg" width="51.27" height="50" viewBox="0 0 51.27 50"><path d="M25.635.3a25.636,25.636,0,0,0-8.107,49.956c1.282.241,1.752-.551,1.752-1.233,0-.609-.021-2.222-.032-4.358-7.131,1.547-8.635-3.439-8.635-3.439-1.166-2.959-2.852-3.749-2.852-3.749-2.322-1.589.179-1.557.179-1.557a5.375,5.375,0,0,1,3.926,2.64c2.286,3.92,6,2.788,7.466,2.132a5.465,5.465,0,0,1,1.624-3.429C15.263,36.619,9.28,34.415,9.28,24.592a9.89,9.89,0,0,1,2.638-6.879,9.114,9.114,0,0,1,.224-6.785s2.147-.688,7.05,2.628a24.168,24.168,0,0,1,12.817,0c4.871-3.315,7.018-2.628,7.018-2.628a9.367,9.367,0,0,1,.256,6.785,9.93,9.93,0,0,1,2.628,6.879c0,9.848-5.992,12.016-11.7,12.646a6.137,6.137,0,0,1,1.73,4.742c0,3.431-.032,6.187-.032,7.02,0,.673.449,1.474,1.762,1.218A25.6,25.6,0,0,0,25.635.3" transform="translate(0 -0.297)" fill="#181717"/></svg>