<svg xmlns="http://www.w3.org/2000/svg" width="1899" height="396.556" viewBox="0 0 1899 396.556">
  <g id="Group_18" data-name="Group 18" transform="translate(-7810 1004)">
    <g id="computer" transform="translate(7810 -1015)">
      <path id="Path_6" data-name="Path 6" d="M254.833,401l-70.245,25.046-2.663,9.309C178.143,448.6,163.775,459.44,150,459.44V465.7H295.682Z" transform="translate(-24.772 -64.407)" fill="#adaca7"/>
      <path id="Path_7" data-name="Path 7" d="M289.384,430.4l-9.818-34.354L239.075,371l-40.49,25.046-7.155,25.046h70.245l2.663,9.309c3.782,13.249,18.15,24.086,31.925,24.086l12.523,6.261,12.523-6.261C307.533,454.485,293.165,443.649,289.384,430.4Z" transform="translate(-31.614 -59.452)" fill="#8f8f8b"/>
      <path id="Path_8" data-name="Path 8" d="M437,376.228h25.046a25.119,25.119,0,0,0,25.046-25.046V301.091L437,251Z" transform="translate(-72.168 -39.635)" fill="#adaca7"/>
      <path id="Path_9" data-name="Path 9" d="M0,341.274A25.119,25.119,0,0,0,25.046,366.32H364.832a25.119,25.119,0,0,0,25.046-25.046V191L0,291.183Z" transform="translate(0 -29.726)" fill="#cbc9c2"/>
      <path id="Path_10" data-name="Path 10" d="M462.046,11H437l25.046,250.457h25.046V36.046A25.119,25.119,0,0,0,462.046,11Z" transform="translate(-72.168 0)" fill="#404242"/>
      <path id="Path_11" data-name="Path 11" d="M389.877,36.046A25.119,25.119,0,0,0,364.832,11H25.046A25.119,25.119,0,0,0,0,36.046V261.457H389.877V236.411L207.462,136.217Z" transform="translate(0 0)" fill="#565959"/>
      <path id="Path_12" data-name="Path 12" d="M430.916,40.992l-25.041-.018S248.5,141.167,248.5,141.167,405.872,241.359,405.87,241.361l25.045-.017s0-200.349,0-200.353Z" transform="translate(-41.039 -4.95)" fill="#4b88d5"/>
      <path id="Path_13" data-name="Path 13" d="M369.786,40.991,30.073,40.973c-.021.01-.038,200.384-.073,200.388l339.778-.017s-.027-200.349.008-200.353Z" transform="translate(-4.954 -4.95)" fill="#69a7ff"/>
      <circle id="Ellipse_24" data-name="Ellipse 24" cx="12.523" cy="12.523" r="12.523" transform="translate(194.939 286.502)" fill="#fff"/>
      <path id="Path_14" data-name="Path 14" d="M351.067,483.523H92.261a6.261,6.261,0,0,1,0-12.523H351.067a6.261,6.261,0,1,1,0,12.523Z" transform="translate(-14.202 -75.967)" fill="#8f8f8b"/>
    </g>
    <text id="Piyush_Pawar" data-name="Piyush Pawar" transform="translate(8375 -728)" fill="#fff" font-size="200" font-family="OpenSans-SemiBold, Open Sans" font-weight="600" letter-spacing="0.018em"><tspan x="0" y="0">Piyush Pawar</tspan></text>
  </g>
</svg>
