<svg xmlns="http://www.w3.org/2000/svg" width="61.519" height="50" viewBox="0 0 61.519 50">
	<path d="M61.4,8.2a25.633,25.633,0,0,1-7.241,1.986A12.709,12.709,0,0,0,59.7,3.207a26.05,26.05,0,0,1-8.015,3.035,12.607,12.607,0,0,0-21.815,8.607A12.905,12.905,0,0,0,30.2,17.73,35.717,35.717,0,0,1,4.2,4.591,12.359,12.359,0,0,0,2.5,10.935,12.613,12.613,0,0,0,8.1,21.434a12.571,12.571,0,0,1-5.711-1.579v.156A12.618,12.618,0,0,0,12.508,32.384a12.727,12.727,0,0,1-5.67.218,12.654,12.654,0,0,0,11.8,8.758A25.293,25.293,0,0,1,3,46.756a26.769,26.769,0,0,1-3-.172,35.873,35.873,0,0,0,19.37,5.662c23.207,0,35.882-19.214,35.882-35.849,0-.536,0-1.077-.038-1.615a25.467,25.467,0,0,0,6.305-6.531L61.4,8.2Z" transform="translate(0 -2.246)" fill="#1da1f2" />
</svg>
