<svg width="198" height="210" viewBox="0 0 198 210" fill="none" xmlns="http://www.w3.org/2000/svg">
<mask id="mask0" mask-type="alpha" maskUnits="userSpaceOnUse" x="9" y="30" width="180" height="180">
<path d="M99 210C148.706 210 189 169.706 189 120C189 70.2944 148.706 30 99 30C49.2944 30 9 70.2944 9 120C9 169.706 49.2944 210 99 210Z" fill="white"/>
</mask>
<g mask="url(#mask0)">
<path d="M99 210C148.706 210 189 169.706 189 120C189 70.2944 148.706 30 99 30C49.2944 30 9 70.2944 9 120C9 169.706 49.2944 210 99 210Z" fill="#E6E6E6"/>
<path d="M189 30H9V210H189V30Z" fill="#0BA5F8"/>
</g>
<mask id="mask1" mask-type="alpha" maskUnits="userSpaceOnUse" x="0" y="0" width="198" height="210">
<path d="M9 120C9 169.706 49.2944 210 99 210C148.706 210 189 169.706 189 120H198V0H0V120H9Z" fill="white"/>
</mask>
<g mask="url(#mask1)">
<mask id="mask2" mask-type="alpha" maskUnits="userSpaceOnUse" x="24" y="27" width="150" height="183">
<path d="M117 135.458V149.25H120C149.823 149.25 174 173.427 174 203.25V210H24V203.25C24 173.427 48.1766 149.25 78 149.25H81V135.458C68.072 129.317 58.7792 116.765 57.2289 101.911C52.8602 101.293 49.5 97.5391 49.5 93V82.5C49.5 78.0405 52.7434 74.3386 57 73.6244V69C57 45.804 75.804 27 99 27C122.196 27 141 45.804 141 69V73.6244C145.257 74.3386 148.5 78.0405 148.5 82.5V93C148.5 97.5391 145.14 101.293 140.771 101.911C139.221 116.765 129.928 129.317 117 135.458Z" fill="white"/>
</mask>
<g mask="url(#mask2)">
<path d="M117 135.458V149.25H120C149.823 149.25 174 173.427 174 203.25V210H24V203.25C24 173.427 48.1766 149.25 78 149.25H81V135.458C68.072 129.317 58.7792 116.765 57.2289 101.911C52.8602 101.293 49.5 97.5391 49.5 93V82.5C49.5 78.0405 52.7434 74.3386 57 73.6244V69C57 45.804 75.804 27 99 27C122.196 27 141 45.804 141 69V73.6244C145.257 74.3386 148.5 78.0405 148.5 82.5V93C148.5 97.5391 145.14 101.293 140.771 101.911C139.221 116.765 129.928 129.317 117 135.458Z" fill="#D0C6AC"/>
<path d="M198 27H0V210H198V27Z" fill="#EDB98A"/>
<path fill-rule="evenodd" clip-rule="evenodd" d="M141 86.25V103.5C141 126.696 122.196 145.5 99 145.5C75.804 145.5 57 126.696 57 103.5V86.25V97.5C57 120.696 75.804 139.5 99 139.5C122.196 139.5 141 120.696 141 97.5V86.25Z" fill="black" fill-opacity="0.1"/>
</g>
<mask id="mask3" mask-type="alpha" maskUnits="userSpaceOnUse" x="24" y="137" width="150" height="73">
<path fill-rule="evenodd" clip-rule="evenodd" d="M81 137.303C67.561 138.807 57.2099 142.914 57.0032 153.484C37.6098 161.676 24 180.873 24 203.25V210H174V203.25C174 180.873 160.39 161.676 140.997 153.484C140.79 142.914 130.439 138.807 117 137.303V151.5C117 161.441 108.941 169.5 99 169.5C89.0589 169.5 81 161.441 81 151.5V137.303Z" fill="white"/>
</mask>
<g mask="url(#mask3)">
<path fill-rule="evenodd" clip-rule="evenodd" d="M81 137.303C67.561 138.807 57.2099 142.914 57.0032 153.484C37.6098 161.676 24 180.873 24 203.25V210H174V203.25C174 180.873 160.39 161.676 140.997 153.484C140.79 142.914 130.439 138.807 117 137.303V151.5C117 161.441 108.941 169.5 99 169.5C89.0589 169.5 81 161.441 81 151.5V137.303Z" fill="#B7C1DB"/>
<path d="M198 127.5H0V210H198V127.5Z" fill="#3C4F5C"/>
<path fill-rule="evenodd" clip-rule="evenodd" d="M76.5 173.804V210H71.25V171.113C72.9028 172.095 74.6601 172.996 76.5 173.804ZM126.75 171.113V201.375C126.75 202.825 125.575 204 124.125 204C122.675 204 121.5 202.825 121.5 201.375V173.804C123.34 172.996 125.097 172.095 126.75 171.113Z" fill="#F4F4F4"/>
<path fill-rule="evenodd" clip-rule="evenodd" d="M68.2201 137.043C56.932 139.178 49.125 143.432 49.125 151.731C49.125 166.515 73.9033 178.5 99 178.5C124.097 178.5 148.875 166.515 148.875 151.731C148.875 143.432 141.068 139.178 129.78 137.043C136.594 139.556 141 143.78 141 150.808C141 166.102 120.134 178.5 99 178.5C77.8659 178.5 57 166.102 57 150.808C57 143.78 61.4063 139.556 68.2201 137.043Z" fill="black" fill-opacity="0.16"/>
</g>
<mask id="mask4" mask-type="alpha" maskUnits="userSpaceOnUse" x="84" y="110" width="30" height="15">
<path fill-rule="evenodd" clip-rule="evenodd" d="M84.8383 111.846C85.6317 118.965 91.6694 124.5 99 124.5C106.353 124.5 112.405 118.931 113.169 111.78C113.23 111.205 112.588 110.25 111.782 110.25C100.612 110.25 92.0534 110.25 86.3151 110.25C85.5049 110.25 84.759 111.134 84.8383 111.846Z" fill="white"/>
</mask>
<g mask="url(#mask4)">
<path fill-rule="evenodd" clip-rule="evenodd" d="M84.8383 111.846C85.6317 118.965 91.6694 124.5 99 124.5C106.353 124.5 112.405 118.931 113.169 111.78C113.23 111.205 112.588 110.25 111.782 110.25C100.612 110.25 92.0534 110.25 86.3151 110.25C85.5049 110.25 84.759 111.134 84.8383 111.846Z" fill="black" fill-opacity="0.7"/>
<path d="M107.25 102H91.5C89.4289 102 87.75 103.679 87.75 105.75V110.25C87.75 112.321 89.4289 114 91.5 114H107.25C109.321 114 111 112.321 111 110.25V105.75C111 103.679 109.321 102 107.25 102Z" fill="white"/>
<path d="M95.25 135C99.8063 135 103.5 131.306 103.5 126.75C103.5 122.194 99.8063 118.5 95.25 118.5C90.6937 118.5 87 122.194 87 126.75C87 131.306 90.6937 135 95.25 135Z" fill="#FF4F6D"/>
<path d="M102.75 135C107.306 135 111 131.306 111 126.75C111 122.194 107.306 118.5 102.75 118.5C98.1937 118.5 94.5 122.194 94.5 126.75C94.5 131.306 98.1937 135 102.75 135Z" fill="#FF4F6D"/>
</g>
<path fill-rule="evenodd" clip-rule="evenodd" d="M90 97.5C90 100.814 94.0294 103.5 99 103.5C103.971 103.5 108 100.814 108 97.5" fill="black" fill-opacity="0.16"/>
<path fill-rule="evenodd" clip-rule="evenodd" d="M69.1201 84.3355C70.505 81.4864 73.6233 79.5 77.2482 79.5C80.8603 79.5 83.9693 81.4724 85.3615 84.3053C85.7751 85.1469 85.1866 85.8356 84.593 85.3253C82.7546 83.7448 80.144 82.7578 77.2482 82.7578C74.4429 82.7578 71.9053 83.6841 70.0782 85.1787C69.4101 85.7252 68.7151 85.1688 69.1201 84.3355Z" fill="black" fill-opacity="0.6"/>
<path fill-rule="evenodd" clip-rule="evenodd" d="M112.62 84.3355C114.005 81.4864 117.123 79.5 120.748 79.5C124.36 79.5 127.469 81.4724 128.862 84.3053C129.275 85.1469 128.687 85.8356 128.093 85.3253C126.255 83.7448 123.644 82.7578 120.748 82.7578C117.943 82.7578 115.405 83.6841 113.578 85.1787C112.91 85.7252 112.215 85.1688 112.62 84.3355Z" fill="black" fill-opacity="0.6"/>
<path d="M68.7227 74.3689C71.6589 70.2374 79.7084 67.9206 86.6423 69.6234C87.4468 69.821 88.2591 69.3289 88.4567 68.5244C88.6543 67.7199 88.1622 66.9075 87.3577 66.71C79.3053 64.7325 69.9841 67.4153 66.2773 72.6311C65.7974 73.3063 65.9558 74.2428 66.6311 74.7227C67.3063 75.2026 68.2428 75.0442 68.7227 74.3689Z" fill="black" fill-opacity="0.6"/>
<path d="M129.278 74.3689C126.341 70.2374 118.292 67.9206 111.358 69.6234C110.553 69.821 109.741 69.3289 109.544 68.5244C109.346 67.7199 109.838 66.9075 110.642 66.71C118.695 64.7325 128.016 67.4153 131.723 72.6311C132.203 73.3063 132.044 74.2428 131.369 74.7227C130.694 75.2026 129.757 75.0442 129.278 74.3689Z" fill="black" fill-opacity="0.6"/>
<mask id="mask5" mask-type="alpha" maskUnits="userSpaceOnUse" x="0" y="0" width="198" height="210">
<path d="M198 0H0V210H198V0Z" fill="white"/>
</mask>
<g mask="url(#mask5)">
<mask id="mask6" mask-type="alpha" maskUnits="userSpaceOnUse" x="54" y="12" width="89" height="63">
<path fill-rule="evenodd" clip-rule="evenodd" d="M134.362 29.9403C132.293 27.8253 129.889 26.0301 127.552 24.2299C127.036 23.8331 126.512 23.4458 126.008 23.0339C125.893 22.9403 124.719 22.0993 124.579 21.7898C124.24 21.0452 124.436 21.625 124.483 20.7364C124.542 19.6129 126.833 16.4395 125.123 15.7118C124.371 15.3917 123.03 16.2435 122.308 16.5248C120.897 17.0754 119.469 17.5449 118.01 17.9498C118.709 16.5573 120.042 13.7696 117.537 14.5157C115.586 15.097 113.768 16.5915 111.807 17.2946C112.456 16.2311 115.05 12.936 112.706 12.7518C111.976 12.6944 109.853 14.0628 109.068 14.3547C106.715 15.2291 104.312 15.7943 101.842 16.2394C93.444 17.753 83.6229 17.3215 75.8526 21.1451C69.8621 24.0928 63.9469 28.6665 60.4863 34.4907C57.1509 40.1044 55.9034 46.2481 55.2052 52.681C54.693 57.4019 54.6513 62.2819 54.8909 67.02C54.9692 68.5723 55.1438 75.7281 57.399 73.561C58.5226 72.4813 58.5143 68.1212 58.7973 66.6453C59.3604 63.709 59.9025 60.7595 60.8415 57.917C62.4962 52.908 64.4481 47.5722 68.5702 44.1223C71.2155 41.9087 73.0731 38.9167 75.6045 36.6834C76.7416 35.6804 75.8739 35.7848 77.7022 35.9164C78.9304 36.0048 80.1641 36.0385 81.3948 36.0707C84.2418 36.1447 87.0933 36.1258 89.941 36.1359C95.6762 36.1565 101.384 36.2375 107.114 35.9373C109.66 35.8039 112.213 35.7317 114.753 35.4962C116.172 35.3646 118.689 34.4554 119.856 35.1502C120.925 35.7858 122.035 37.8613 122.802 38.7114C124.615 40.7202 126.777 42.2544 128.897 43.9016C133.317 47.3362 135.549 51.65 136.892 57.0174C138.229 62.365 137.854 67.3261 139.51 72.5886C139.801 73.5139 140.572 75.1087 141.521 73.6792C141.698 73.4137 141.652 71.9543 141.652 71.1145C141.652 67.7247 142.511 65.1813 142.5 61.7693C142.458 51.3954 142.122 37.8681 134.362 29.9403Z" fill="white"/>
</mask>
<g mask="url(#mask6)">
<path fill-rule="evenodd" clip-rule="evenodd" d="M134.362 29.9403C132.293 27.8253 129.889 26.0301 127.552 24.2299C127.036 23.8331 126.512 23.4458 126.008 23.0339C125.893 22.9403 124.719 22.0993 124.579 21.7898C124.24 21.0452 124.436 21.625 124.483 20.7364C124.542 19.6129 126.833 16.4395 125.123 15.7118C124.371 15.3917 123.03 16.2435 122.308 16.5248C120.897 17.0754 119.469 17.5449 118.01 17.9498C118.709 16.5573 120.042 13.7696 117.537 14.5157C115.586 15.097 113.768 16.5915 111.807 17.2946C112.456 16.2311 115.05 12.936 112.706 12.7518C111.976 12.6944 109.853 14.0628 109.068 14.3547C106.715 15.2291 104.312 15.7943 101.842 16.2394C93.444 17.753 83.6229 17.3215 75.8526 21.1451C69.8621 24.0928 63.9469 28.6665 60.4863 34.4907C57.1509 40.1044 55.9034 46.2481 55.2052 52.681C54.693 57.4019 54.6513 62.2819 54.8909 67.02C54.9692 68.5723 55.1438 75.7281 57.399 73.561C58.5226 72.4813 58.5143 68.1212 58.7973 66.6453C59.3604 63.709 59.9025 60.7595 60.8415 57.917C62.4962 52.908 64.4481 47.5722 68.5702 44.1223C71.2155 41.9087 73.0731 38.9167 75.6045 36.6834C76.7416 35.6804 75.8739 35.7848 77.7022 35.9164C78.9304 36.0048 80.1641 36.0385 81.3948 36.0707C84.2418 36.1447 87.0933 36.1258 89.941 36.1359C95.6762 36.1565 101.384 36.2375 107.114 35.9373C109.66 35.8039 112.213 35.7317 114.753 35.4962C116.172 35.3646 118.689 34.4554 119.856 35.1502C120.925 35.7858 122.035 37.8613 122.802 38.7114C124.615 40.7202 126.777 42.2544 128.897 43.9016C133.317 47.3362 135.549 51.65 136.892 57.0174C138.229 62.365 137.854 67.3261 139.51 72.5886C139.801 73.5139 140.572 75.1087 141.521 73.6792C141.698 73.4137 141.652 71.9543 141.652 71.1145C141.652 67.7247 142.511 65.1813 142.5 61.7693C142.458 51.3954 142.122 37.8681 134.362 29.9403Z" fill="#1F3140"/>
<path d="M197.25 0H-0.75V210H197.25V0Z" fill="#2C1B18"/>
</g>
</g>
</g>
</svg>
