<svg width="52" height="52" viewBox="0 0 52 52" fill="none" xmlns="http://www.w3.org/2000/svg">
<path d="M23.5 1.44338C25.047 0.550212 26.953 0.550212 28.5 1.44338L46.0167 11.5566C47.5637 12.4498 48.5167 14.1004 48.5167 15.8868V36.1132C48.5167 37.8996 47.5637 39.5502 46.0167 40.4434L28.5 50.5566C26.953 51.4498 25.047 51.4498 23.5 50.5566L5.98334 40.4434C4.43633 39.5502 3.48334 37.8996 3.48334 36.1132V15.8868C3.48334 14.1004 4.43633 12.4498 5.98334 11.5566L23.5 1.44338Z" fill="url(#paint0_radial)"/>
<path d="M27.2341 24.4331C27.3081 24.4331 27.4468 24.507 27.6501 24.6549C27.8535 24.8028 28.0661 24.8768 28.288 24.8768H28.3157C28.9444 24.8768 29.4436 24.6272 29.8133 24.128C30.1831 23.6288 30.3865 23.1296 30.4235 22.6304L30.5067 21.8816C30.5067 21.179 30.3957 20.5781 30.1739 20.0789C29.9705 19.5612 29.7301 19.1822 29.4528 18.9419C29.1755 18.683 28.8519 18.4889 28.4821 18.3595C28.0199 18.1746 27.53 18.0821 27.0123 18.0821C26.5131 18.0821 26.1063 18.1376 25.792 18.2485C25.4777 18.341 25.302 18.4334 25.2651 18.5259L25.2373 18.6923C25.0709 21.1883 24.9877 23.4254 24.9877 25.4037C24.9877 27.3636 25.0155 29.0553 25.0709 30.4789C25.1449 31.9026 25.2096 33.0027 25.2651 33.7792C25.339 34.5372 25.376 34.9532 25.376 35.0272C25.376 35.4894 24.9692 35.8592 24.1557 36.1365C23.3422 36.4139 22.538 36.5525 21.7429 36.5525C21.3732 36.5525 21.1883 36.4601 21.1883 36.2752C21.1883 36.2197 21.216 36.0903 21.2715 35.8869C21.6228 35.0734 21.7984 31.2924 21.7984 24.544C21.7984 20.5689 21.5303 18.2948 20.9941 17.7216C20.8832 17.6107 20.8277 17.4997 20.8277 17.3888C20.8277 17.2594 20.9572 17.1207 21.216 16.9728C21.4933 16.8249 22.2514 16.6585 23.4901 16.4736C24.7289 16.2702 26.0416 16.1685 27.4283 16.1685C29.61 16.1685 31.2462 16.7602 32.3371 17.9435C33.4464 19.1268 34.0011 20.5412 34.0011 22.1867C34.0011 23.8137 33.5481 25.2281 32.6421 26.4299C31.7547 27.6316 30.5899 28.2325 29.1477 28.2325C28.6855 28.2325 28.2233 28.1493 27.7611 27.9829C26.8366 27.6501 26.3744 26.9568 26.3744 25.9029C26.3744 25.6811 26.4484 25.3852 26.5963 25.0155C26.7442 24.6272 26.9568 24.4331 27.2341 24.4331Z" fill="#F5FBFF"/>
<defs>
<radialGradient id="paint0_radial" cx="0" cy="0" r="1" gradientUnits="userSpaceOnUse" gradientTransform="translate(26 26) rotate(90) scale(26)">
<stop stop-color="#40B9FB"/>
<stop offset="1" stop-color="#0097E8"/>
</radialGradient>
</defs>
</svg>
