<svg width="35" height="35" viewBox="0 0 35 35" fill="none" xmlns="http://www.w3.org/2000/svg">
<path d="M12.4542 15.6479C12.3083 15.1958 12.1771 14.7583 12.0312 14.3062C11.8854 13.8542 11.7542 13.4312 11.6375 13.0083C11.5208 12.6 11.4188 12.2208 11.3167 11.8708H11.2875C11.1562 12.4979 10.9958 13.125 10.7917 13.7521C10.5729 14.4521 10.3542 15.1812 10.1208 15.9104C9.93125 16.6542 9.69792 17.3396 9.47917 17.9521H13.1833C13.0958 17.6458 12.9792 17.2812 12.8479 16.9021C12.7167 16.5083 12.5854 16.0854 12.4542 15.6479ZM24.9667 15.225C24.1646 15.1812 23.4062 15.6042 23.0271 16.3333C22.8521 16.6687 22.75 17.0187 22.7062 17.3833H25.7819C26.161 17.3833 26.4381 17.3833 26.6131 17.3687C26.7298 17.3542 26.8465 17.325 26.9485 17.2521V17.1062C26.9485 16.9167 26.9179 16.7417 26.8596 16.5667C26.6 15.75 25.8271 15.1958 24.9667 15.225ZM28.8021 0.4375H6.19792C2.77083 0.4375 0 3.20833 0 6.63542V28.3646C0 31.7917 2.77083 34.5625 6.19792 34.5625H28.8021C32.2292 34.5625 35 31.7917 35 28.3646V6.63542C35 3.20833 32.2292 0.4375 28.8021 0.4375ZM18.5354 24.516H15.4875C15.3854 24.5306 15.2833 24.4562 15.2542 24.3556L14.0583 20.8556H8.63333L7.525 24.2973C7.49583 24.4285 7.37917 24.516 7.24792 24.5015H4.50625C4.34583 24.5015 4.30208 24.414 4.34583 24.239L9.04167 10.7771C9.08542 10.6312 9.12917 10.5 9.1875 10.325C9.24583 10.0187 9.275 9.69792 9.275 9.37708C9.26042 9.30417 9.31875 9.23125 9.39167 9.21667H13.1687C13.2708 9.21667 13.3438 9.26042 13.3583 9.33333L18.6813 24.2812C18.725 24.4417 18.6827 24.516 18.5354 24.516ZM29.9848 18.6958C29.9542 18.9715 29.9396 19.1771 29.925 19.3083C29.9104 19.4104 29.8244 19.4979 29.7208 19.4979C29.6333 19.4979 29.4729 19.5125 29.2396 19.5285C29.0077 19.5577 28.7292 19.5708 28.3952 19.5708C28.0598 19.5708 27.7083 19.5125 27.3306 19.5125H22.7077C22.7646 19.9646 22.9119 20.4167 23.1598 20.8104C23.4237 21.2056 23.7883 21.5104 24.2229 21.6869C24.8063 21.9348 25.4494 22.066 26.091 22.0515C26.6015 22.0354 27.1104 21.9931 27.6063 21.891C28.0598 21.8342 28.4958 21.7175 28.9056 21.5556C28.9785 21.4987 29.0223 21.5265 29.0223 21.6723V23.905C29.0223 23.9619 29.0077 24.0217 28.9917 24.0785C28.961 24.1223 28.9333 24.1529 28.891 24.1806C28.4244 24.3848 27.9431 24.5306 27.4327 24.6181C26.7458 24.7494 26.0619 24.8077 25.3619 24.7931C24.2521 24.7931 23.3202 24.6181 22.5619 24.2827C21.8473 23.975 21.2188 23.4937 20.7229 22.8973C20.2577 22.3285 19.9208 21.6869 19.7167 20.9869C19.5125 20.3 19.4119 19.5854 19.4119 18.8562C19.4119 18.0702 19.5285 17.2958 19.7765 16.5375C20.0098 15.8083 20.3744 15.1375 20.8702 14.5396C21.3515 13.9562 21.9479 13.4896 22.6333 13.1542C23.3202 12.8187 24.1354 12.7021 25.0688 12.7021C25.8431 12.6875 26.6146 12.8333 27.3292 13.1542C27.9271 13.4167 28.4521 13.8104 28.8604 14.3208C29.2396 14.8167 29.5458 15.3708 29.7369 15.9833C29.925 16.5667 30.0125 17.1646 30.0125 17.7625C30.0125 18.1125 29.9979 18.4187 29.9848 18.6958Z" fill="#9999FF"/>
</svg>
