<svg width="35" height="35" viewBox="0 0 35 35" fill="none" xmlns="http://www.w3.org/2000/svg">
<path d="M28.8021 0.4375H6.19792C2.77083 0.4375 0 3.20833 0 6.63542V28.3646C0 31.7917 2.77083 34.5625 6.19792 34.5625H28.8021C32.2292 34.5625 35 31.7917 35 28.3646V6.63542C35 3.20833 32.2292 0.4375 28.8021 0.4375ZM33.5271 27.7958C33.5303 28.4914 33.3962 29.1807 33.1325 29.8244C32.8687 30.468 32.4804 31.0532 31.9899 31.5463C31.4994 32.0395 30.9164 32.431 30.2742 32.6984C29.6321 32.9657 28.9435 33.1036 28.2479 33.1042H6.75208C3.83542 33.1042 1.45833 30.7271 1.45833 27.8104V7.18958C1.45833 4.27292 3.83542 1.89583 6.75208 1.89583H28.2333C29.6373 1.89583 30.9838 2.45357 31.9766 3.44634C32.9694 4.43911 33.5271 5.78559 33.5271 7.18958V27.7958ZM13.8396 16.4062L17.9229 24.2521C17.9958 24.3687 17.9521 24.4854 17.8354 24.4854H15.2979C15.1375 24.4854 15.0646 24.4417 14.9917 24.2958C14.0583 22.3708 13.1104 20.4458 12.1333 18.375H12.1042C11.2292 20.3292 10.2667 22.3854 9.33333 24.3104C9.26042 24.4271 9.1875 24.4708 9.07083 24.4708H6.66458C6.51875 24.4708 6.50417 24.3542 6.57708 24.2667L10.5729 16.6542L6.70833 8.95417C6.62083 8.8375 6.70833 8.75 6.79583 8.75H9.30417C9.45 8.75 9.50833 8.77917 9.56667 8.91042C10.4854 10.8354 11.4188 12.8187 12.2938 14.7583H12.3229C13.1687 12.8333 14.1021 10.8354 15.0063 8.925C15.0792 8.80833 15.1229 8.73542 15.2688 8.73542H17.6167C17.7333 8.73542 17.7771 8.82292 17.7042 8.93958L13.8396 16.4062ZM18.6375 18.7833C18.6375 15.3854 20.8979 12.7312 24.4854 12.7312C24.7917 12.7312 24.9521 12.7312 25.2437 12.7604V8.89583C25.2437 8.80833 25.3167 8.75 25.3896 8.75H27.6938C27.8104 8.75 27.8396 8.79375 27.8396 8.86667V22.2542C27.8396 22.6479 27.8396 23.1437 27.9125 23.6833C27.9125 23.7708 27.8833 23.8 27.7958 23.8438C26.5708 24.4271 25.2875 24.6896 24.0625 24.6896C20.8979 24.7042 18.6375 22.75 18.6375 18.7833ZM25.2437 15.05C25.0396 14.9625 24.7479 14.9042 24.3979 14.9042C22.5604 14.9042 21.2771 16.3187 21.2771 18.6667C21.2771 21.35 22.5896 22.4292 24.2375 22.4292C24.5875 22.4292 24.9667 22.3854 25.2437 22.2687V15.05Z" fill="#FF26BE"/>
</svg>
