<svg width="36" height="36" viewBox="0 0 36 36" fill="none" xmlns="http://www.w3.org/2000/svg">
<rect width="36" height="36" rx="3" fill="#F9D2E1"/>
<path d="M18 30C11.385 30 6 24.615 6 18C6 11.385 11.385 6 18 6C24.615 6 30 11.385 30 18C30 24.615 24.615 30 18 30ZM28.12 19.642C27.77 19.532 24.95 18.689 21.736 19.204C23.076 22.888 23.623 25.888 23.728 26.512C26.028 24.957 27.664 22.492 28.123 19.642H28.12ZM22.005 27.45C21.852 26.55 21.255 23.418 19.815 19.68L19.749 19.7C13.959 21.715 11.889 25.725 11.709 26.1C13.439 27.458 15.629 28.266 17.999 28.266C19.419 28.266 20.769 27.976 21.999 27.452L22.005 27.45ZM10.385 24.87C10.617 24.47 13.43 19.815 18.717 18.105C18.852 18.06 18.987 18.021 19.122 17.985C18.862 17.4 18.582 16.818 18.29 16.245C13.17 17.775 8.206 17.71 7.756 17.7L7.752 18.012C7.752 20.645 8.75 23.049 10.386 24.867L10.385 24.87ZM7.965 15.915C8.425 15.923 12.648 15.941 17.442 14.667C15.744 11.649 13.912 9.109 13.642 8.739C10.774 10.089 8.632 12.729 7.966 15.909L7.965 15.915ZM15.6 8.052C15.882 8.432 17.745 10.966 19.422 14.052C23.067 12.687 24.612 10.612 24.795 10.35C22.985 8.74 20.605 7.764 18 7.764C17.175 7.764 16.37 7.864 15.6 8.049V8.052ZM25.935 11.535C25.717 11.825 24 14.028 20.211 15.575C20.451 16.065 20.681 16.56 20.891 17.061C20.971 17.241 21.041 17.421 21.111 17.591C24.521 17.161 27.911 17.851 28.251 17.921C28.231 15.501 27.371 13.281 25.941 11.541L25.935 11.535Z" fill="#EA4C89"/>
</svg>
