<svg width="24" height="35" viewBox="0 0 24 35" fill="none" xmlns="http://www.w3.org/2000/svg">
<g clip-path="url(#clip0)">
<path d="M5.77244 35C8.95755 35 11.5426 32.3866 11.5426 29.1666V23.3333H5.77244C2.58733 23.3333 0.00231934 25.9466 0.00231934 29.1666C0.00231934 32.3866 2.58733 35 5.77244 35Z" fill="#0ACF83"/>
<path d="M0.00231934 17.5C0.00231934 14.28 2.58733 11.6667 5.77244 11.6667H11.5426V23.3333H5.77244C2.58733 23.3333 0.00231934 20.72 0.00231934 17.5Z" fill="#A259FF"/>
<path d="M0.00231934 5.83333C0.00231934 2.61333 2.58733 0 5.77244 0H11.5426V11.6667H5.77244C2.58733 11.6667 0.00231934 9.05333 0.00231934 5.83333Z" fill="#F24E1E"/>
<path d="M11.5425 0H17.3127C20.4978 0 23.0828 2.61333 23.0828 5.83333C23.0828 9.05333 20.4978 11.6667 17.3127 11.6667H11.5425V0Z" fill="#FF7262"/>
<path d="M23.0828 17.5C23.0828 20.72 20.4978 23.3333 17.3127 23.3333C14.1276 23.3333 11.5425 20.72 11.5425 17.5C11.5425 14.28 14.1276 11.6667 17.3127 11.6667C20.4978 11.6667 23.0828 14.28 23.0828 17.5Z" fill="#1ABCFE"/>
</g>
<defs>
<clipPath id="clip0">
<rect width="23.0851" height="35" fill="white"/>
</clipPath>
</defs>
</svg>
