<svg width="35" height="35" viewBox="0 0 35 35" fill="none" xmlns="http://www.w3.org/2000/svg">
<path d="M5.67289 22.8565L9.12185 0.672325C9.14682 0.50788 9.22302 0.355502 9.33962 0.236883C9.45622 0.118264 9.60726 0.0394498 9.77125 0.0116602C9.93524 -0.0161294 10.1038 0.00852206 10.253 0.0821053C10.4022 0.155688 10.5243 0.274453 10.6021 0.421492L14.3106 7.3792L5.67289 22.8565ZM30.1656 28.2392L26.8814 7.82399C26.8573 7.6809 26.7943 7.54719 26.6993 7.43747C26.6043 7.32775 26.481 7.24624 26.3429 7.20184C26.2047 7.15744 26.057 7.15186 25.9159 7.18571C25.7748 7.21956 25.6457 7.29154 25.5427 7.39378L4.83435 28.2392L16.2925 34.6967C16.6458 34.8952 17.0443 34.9995 17.4497 34.9995C17.855 34.9995 18.2535 34.8952 18.6068 34.6967L30.1656 28.2392ZM20.8541 10.4242L18.2 5.34628C18.133 5.21859 18.0324 5.11164 17.909 5.03702C17.7856 4.96241 17.6442 4.92296 17.5 4.92296C17.3558 4.92296 17.2143 4.96241 17.0909 5.03702C16.9676 5.11164 16.8669 5.21859 16.8 5.34628L5.14789 26.2267L20.8541 10.4242Z" fill="#FFCA28"/>
</svg>
