<svg width="35" height="35" viewBox="0 0 35 35" fill="none" xmlns="http://www.w3.org/2000/svg">
<path d="M17.5015 0.0102081C7.76713 0.0102081 0.0102539 7.76708 0.0102539 17.5C0.0102539 27.2329 7.76713 34.9927 17.5 34.9927C27.233 34.9927 34.9913 27.2358 34.9913 17.5015C34.9913 7.76708 27.2359 0.0102081 17.5015 0.0102081ZM3.81213 17.6531L17.3498 31.1908C9.8963 31.1908 3.81213 25.1067 3.81213 17.6531ZM20.5436 30.886L4.11692 14.4594C5.48338 8.37521 10.9609 3.81208 17.5 3.81208C19.6622 3.81631 21.7932 4.32782 23.7217 5.30549C25.6502 6.28317 27.3224 7.69972 28.6038 9.44125L26.6278 11.1125C25.5972 9.60438 24.2125 8.37208 22.5949 7.52364C20.9774 6.67519 19.1764 6.23651 17.3498 6.24604C15.04 6.23121 12.784 6.9427 10.9006 8.27995C9.01718 9.6172 7.6017 11.5126 6.85421 13.6981L21.1517 27.9971C24.6517 26.7794 27.3875 23.7387 28.1488 20.0871H22.2163V17.5015H31.1909C31.1909 24.0421 26.6278 29.5181 20.5436 30.886Z" fill="#663399"/>
</svg>
