<svg width="36" height="36" viewBox="0 0 36 36" fill="none" xmlns="http://www.w3.org/2000/svg">
<rect width="36" height="36" rx="3" fill="#E7E6E6"/>
<path d="M18 6.297C11.37 6.297 6 11.67 6 18.297C6 23.6 9.438 28.097 14.205 29.682C14.805 29.795 15.025 29.424 15.025 29.105C15.025 28.82 15.015 28.065 15.01 27.065C11.672 27.789 10.968 25.455 10.968 25.455C10.422 24.07 9.633 23.7 9.633 23.7C8.546 22.956 9.717 22.971 9.717 22.971C10.922 23.055 11.555 24.207 11.555 24.207C12.625 26.042 14.364 25.512 15.05 25.205C15.158 24.429 15.467 23.9 15.81 23.6C13.145 23.3 10.344 22.268 10.344 17.67C10.344 16.36 10.809 15.29 11.579 14.45C11.444 14.147 11.039 12.927 11.684 11.274C11.684 11.274 12.689 10.952 14.984 12.504C15.944 12.237 16.964 12.105 17.984 12.099C19.004 12.105 20.024 12.237 20.984 12.504C23.264 10.952 24.269 11.274 24.269 11.274C24.914 12.927 24.509 14.147 24.389 14.45C25.154 15.29 25.619 16.36 25.619 17.67C25.619 22.28 22.814 23.295 20.144 23.59C20.564 23.95 20.954 24.686 20.954 25.81C20.954 27.416 20.939 28.706 20.939 29.096C20.939 29.411 21.149 29.786 21.764 29.666C26.565 28.092 30 23.592 30 18.297C30 11.67 24.627 6.297 18 6.297" fill="#181717"/>
</svg>
