<svg width="35" height="35" viewBox="0 0 35 35" fill="none" xmlns="http://www.w3.org/2000/svg">
<g clip-path="url(#clip0)">
<path d="M32.4494 17.2375C32.4476 16.2336 32.1136 15.2586 31.4994 14.4645C30.8853 13.6705 30.0256 13.102 29.0544 12.8479L33.4119 0H11.8183L16.1875 12.8888C15.2443 13.1637 14.4156 13.7369 13.8256 14.5225C13.2356 15.3081 12.9161 16.2638 12.915 17.2463C12.915 18.7673 13.6733 20.1148 14.8298 20.9446C14.3646 21.6004 13.835 22.2082 13.249 22.7588C12.171 23.7855 10.9094 24.6003 9.53022 25.1606C8.31397 24.3396 7.78751 22.8915 8.26292 21.5935C9.29756 21.2722 10.183 20.5911 10.7589 19.6735C11.3349 18.7558 11.5634 17.6624 11.403 16.5909C11.2427 15.5195 10.7041 14.5408 9.88466 13.832C9.06526 13.1233 8.01923 12.7312 6.93584 12.7269C5.73229 12.7284 4.57847 13.2072 3.72743 14.0583C2.87639 14.9093 2.39759 16.0631 2.39605 17.2667C2.39605 18.5033 2.90209 19.6379 3.71292 20.4488C3.64292 20.5902 3.57147 20.7331 3.50001 20.8848C2.82188 22.2833 2.05188 23.8642 1.7573 25.6375C1.16959 29.1842 2.13209 32.0308 4.45376 33.6423C5.7103 34.5285 7.21093 35.0029 8.74855 35C11.4129 35 14.1181 33.6627 16.7329 32.3648C18.5981 31.4431 20.5231 30.4806 22.4175 30.014C23.1175 29.8419 23.8467 29.7412 24.6167 29.629C26.1771 29.4058 27.7885 29.174 29.2367 28.331C30.0637 27.8571 30.777 27.2081 31.3267 26.4294C31.8764 25.6507 32.2491 24.7613 32.4188 23.8233C32.6725 22.3738 32.4188 20.9154 31.7713 19.6379C32.2058 18.9379 32.4494 18.1183 32.4494 17.236V17.2375ZM30.4733 17.2375C30.4733 18.6448 29.3285 19.7896 27.9213 19.7896C27.3913 19.7881 26.8749 19.622 26.4435 19.3141C26.0121 19.0063 25.687 18.5721 25.5133 18.0714C25.3395 17.5707 25.3256 17.0285 25.4735 16.5196C25.6215 16.0107 25.9239 15.5603 26.339 15.2308L26.3492 15.2206C26.4308 15.1594 26.5213 15.0981 26.6117 15.0383C26.6117 15.0383 26.6233 15.0383 26.6233 15.0281C26.6642 15.0077 26.7036 14.9771 26.7444 14.9552C26.7546 14.9552 26.7648 14.9465 26.775 14.9465C26.8158 14.926 26.8669 14.9056 26.9165 14.8852C26.9675 14.8648 27.0185 14.8458 27.0594 14.8254C27.0696 14.8254 27.0783 14.8152 27.0886 14.8152C27.1294 14.805 27.1702 14.7846 27.2111 14.7744C27.2213 14.7744 27.2402 14.7642 27.2519 14.7642C27.3015 14.754 27.3423 14.7438 27.3933 14.735H27.4035L27.5552 14.7029C27.5654 14.7029 27.5844 14.7029 27.5961 14.6927C27.6369 14.6927 27.6763 14.6825 27.7171 14.6825H27.7681C27.8192 14.6825 27.8702 14.6723 27.93 14.6723H28.0613C28.1021 14.6723 28.1342 14.6723 28.1735 14.6825H28.194C28.2742 14.6927 28.3558 14.7029 28.4375 14.7233C29.0128 14.8466 29.5286 15.1632 29.899 15.6203C30.2694 16.0775 30.4721 16.6477 30.4733 17.236V17.2375ZM14.646 2.02708H30.5856L26.9267 12.8188C26.775 12.8479 26.6233 12.899 26.4717 12.95L22.6217 5.09688L18.76 12.899C18.6083 12.8494 18.445 12.8188 18.2831 12.7881L14.646 2.02563V2.02708ZM21.891 16.3552C21.7046 15.4198 21.2256 14.5679 20.5231 13.9227L22.6202 9.68771L24.7377 14.0146C24.1106 14.6417 23.6542 15.4438 23.4719 16.3552H21.8896H21.891ZM16.8146 14.754C16.8642 14.7437 16.905 14.7335 16.956 14.7248H16.9852C17.0275 14.7131 17.0669 14.7131 17.1077 14.7029H17.1485C17.1894 14.7029 17.22 14.6927 17.2594 14.6927H17.6546C17.6954 14.6927 17.726 14.7029 17.7567 14.7029C17.7771 14.7029 17.7858 14.7029 17.8077 14.7131C17.8471 14.7233 17.8777 14.7233 17.9185 14.7335C17.9288 14.7335 17.939 14.7335 17.9594 14.7437L18.1008 14.7729H18.111C18.1519 14.7846 18.1927 14.7948 18.2321 14.8152C18.2423 14.8152 18.2525 14.8254 18.2729 14.8254C18.3035 14.8356 18.3444 14.8458 18.375 14.8648C18.3852 14.8648 18.3954 14.875 18.4042 14.875C18.445 14.8954 18.4858 14.9056 18.5267 14.926H18.5369C18.5837 14.9437 18.6279 14.9678 18.6681 14.9975H18.6783C18.7192 15.0179 18.76 15.0471 18.8008 15.0675C18.811 15.0675 18.811 15.0777 18.8198 15.0777C18.8606 15.0981 18.8927 15.1287 18.9321 15.1492L18.9423 15.1594C19.0633 15.2498 19.1756 15.3519 19.2865 15.4525L19.2967 15.4627C19.7483 15.9384 19.999 16.5699 19.9967 17.2258C19.9743 17.8881 19.6954 18.5158 19.219 18.9764C18.7426 19.437 18.1058 19.6945 17.4431 19.6945C16.7804 19.6945 16.1437 19.437 15.6673 18.9764C15.1908 18.5158 14.912 17.8881 14.8896 17.2258C14.888 16.6579 15.0767 16.1059 15.4257 15.6578C15.7746 15.2098 16.2636 14.8915 16.8146 14.754ZM6.84251 14.6825C8.25126 14.6825 9.39605 15.8288 9.39605 17.236C9.39605 18.6433 8.25126 19.7896 6.84397 19.7896C5.43667 19.7896 4.28897 18.6448 4.28897 17.2375C4.28897 15.8302 5.43522 14.6825 6.84251 14.6825ZM30.4135 23.469C30.2983 24.1173 30.0414 24.7322 29.6613 25.2698C29.2812 25.8075 28.7871 26.2547 28.2144 26.5796C27.109 27.2183 25.7513 27.421 24.3221 27.6238C23.5185 27.7267 22.7204 27.8683 21.9304 28.0481C19.8231 28.5658 17.7975 29.5794 15.8317 30.5521C13.3175 31.7975 10.9463 32.9729 8.74855 32.9729C7.62158 32.9799 6.52155 32.6286 5.6073 31.9696C3.37751 30.4296 3.48834 27.5421 3.7523 25.9613C3.99584 24.481 4.67397 23.0942 5.32292 21.7656C5.36376 21.6854 5.39438 21.614 5.43522 21.5323C5.65688 21.614 5.89022 21.6752 6.13376 21.716C5.74876 23.8642 6.84251 26.0823 8.97167 27.1775L9.35667 27.3802L9.77084 27.2285C11.5442 26.6 13.1863 25.5763 14.6358 24.2083C15.4363 23.4619 16.1439 22.6217 16.7431 21.7058C16.9765 21.7452 17.2098 21.7554 17.4431 21.7554C18.4463 21.7531 19.4205 21.419 20.214 20.8052C21.0074 20.1913 21.5756 19.3323 21.8298 18.3619H23.5317C23.7843 19.3338 24.3523 20.1943 25.1468 20.8085C25.9412 21.4227 26.9171 21.7557 27.9213 21.7554C28.7613 21.7554 29.54 21.5221 30.2108 21.1283C30.4733 21.8867 30.555 22.6785 30.4135 23.469Z" fill="#C21325"/>
</g>
<defs>
<clipPath id="clip0">
<rect width="35" height="35" fill="white"/>
</clipPath>
</defs>
</svg>
