<svg width="36" height="36" viewBox="0 0 36 36" fill="none" xmlns="http://www.w3.org/2000/svg">
<rect width="36" height="36" rx="3" fill="#CCEEFF"/>
<path d="M22.893 26.4521H26.447L26.448 20.1661C26.448 17.0811 25.782 14.7111 22.181 14.7111C20.448 14.7111 19.288 15.6611 18.811 16.5611H18.765V15.0001H15.351V26.4521H18.905V20.7851C18.905 19.2911 19.188 17.8461 21.041 17.8461C22.866 17.8461 22.893 19.5551 22.893 20.8831V26.4521Z" fill="#0077B5"/>
<path d="M9.27399 11.3681C9.27399 12.5071 10.193 13.4331 11.337 13.4331C12.476 13.4331 13.401 12.5071 13.401 11.3681C13.401 10.2301 12.477 9.30505 11.337 9.30505C10.194 9.30505 9.27399 10.2301 9.27399 11.3681Z" fill="#0077B5"/>
<path d="M9.55499 26.4521H13.119V15.0001H9.55499V26.4521Z" fill="#0077B5"/>
</svg>
