<svg width="35" height="35" viewBox="0 0 35 35" fill="none" xmlns="http://www.w3.org/2000/svg">
<path d="M25.0542 13.8804C23.2123 5.77208 18.8679 3.10771 18.4013 2.08833C17.8879 1.36938 17.3323 0 17.3323 0C17.3294 0.0277083 17.3265 0.0452083 17.325 0.0714583V0.0904167H17.3236C17.3206 0.112292 17.3192 0.126875 17.3177 0.147292V0.169167H17.3148C17.3148 0.18375 17.3119 0.195417 17.3119 0.207083V0.245H17.3075C17.3061 0.256667 17.3061 0.27125 17.3031 0.281458V0.312083H17.3002C17.3002 0.322292 17.3002 0.333958 17.2973 0.342708V0.371875H17.2944C17.2944 0.386458 17.2929 0.403958 17.2915 0.418542V0.421458C17.2871 0.44625 17.2827 0.471042 17.2783 0.494375V0.506042H17.2754C17.274 0.511875 17.2711 0.517708 17.2711 0.523542V0.548333H17.2667V0.580417H17.2594V0.606667H17.2521V0.637292H17.2463V0.665H17.2404V0.689792H17.2317V0.710208H17.2258V0.736458H17.22V0.756875H17.2127V0.775833H17.2083V0.797708H17.2025C17.2011 0.799167 17.2011 0.802083 17.2011 0.803542V0.818125H17.1967C17.1952 0.821042 17.1952 0.823958 17.1952 0.826875V0.835625H17.1923C17.1908 0.84 17.1894 0.847292 17.1894 0.850208C17.185 0.860417 17.1792 0.870625 17.1748 0.880833V0.88375C17.1719 0.886667 17.169 0.891042 17.1675 0.893958V0.905625H17.1617V0.917292H17.1544V0.928958H17.15V0.943542H17.1413V0.963958H17.1354V0.969792H17.1296V0.981458H17.1238V0.9975H17.1179V1.00917H17.1092V1.02521H17.1033V1.03688H17.0961V1.04854H17.0917V1.06313H17.0844V1.07479H17.0786V1.08354H17.0727V1.09521H17.064V1.10833H17.0581V1.11708H17.0508V1.12875H17.045V1.14479H17.0377V1.15062H17.0333V1.16229H17.0246V1.16813H17.0188V1.18271H17.0129V1.18854H17.0071V1.20021H16.9998V1.20896H16.9954L16.9925 1.21479V1.22063H16.9896C16.9881 1.22354 16.9867 1.22354 16.9867 1.22646V1.22792H16.9852C16.9838 1.23229 16.9823 1.23521 16.9794 1.23812V1.2425H16.9779C16.9706 1.25125 16.9663 1.26 16.9604 1.26875V1.27021C16.9575 1.27313 16.9502 1.27896 16.9473 1.28479V1.28771H16.9458C16.9444 1.28917 16.9415 1.29062 16.9415 1.29208V1.29646H16.9386L16.9342 1.30083V1.30229H16.9327C16.9327 1.30375 16.9298 1.30521 16.9283 1.30813V1.31396H16.924L16.9211 1.31687V1.31979H16.9181C16.9181 1.32271 16.9152 1.32271 16.9152 1.32417V1.32854H16.9094C16.9094 1.33 16.9079 1.33146 16.9065 1.33292V1.34167H16.9021V1.3475H16.8963V1.35625H16.8904V1.36792H16.8831V1.35625H16.8758V1.36208H16.87V1.37083H16.8627V1.3825H16.8554V1.38833H16.8496V1.39708H16.8438V1.40292H16.8379V1.41458H16.8292V1.42042H16.8233V1.42917H16.8161V1.435H16.8102V1.44229H16.8029V1.45688H16.8V1.46271H16.7913V1.47H16.7854V1.47292H16.7796V1.47875H16.7723V1.49333H16.7665V1.49917H16.7592V1.505H16.7533V1.51375H16.7461V1.51958H16.7388V1.52542H16.7329V1.53125H16.7271V1.54583H16.7213V1.55313H16.7125V1.55896H16.7067V1.56479H16.6994V1.57354H16.6936V1.57937H16.6863V1.58958H16.6804V1.59542H16.6717V1.60417H16.6688V1.61H16.6629V1.61583H16.6556V1.62167H16.6498V1.63042H16.6425V1.63625H16.6381C16.6367 1.63771 16.6367 1.63917 16.6367 1.63917V1.64208H16.6338L16.6279 1.64792C16.6279 1.64792 16.625 1.65083 16.6221 1.65229V1.66104H16.6163V1.66833H16.6104V1.67417H16.6046V1.68H16.6002L16.5958 1.68438V1.68875H16.5929L16.59 1.69167V1.69604H16.5871C16.5798 1.70479 16.5769 1.71063 16.5667 1.71938C16.5638 1.72229 16.555 1.72958 16.5492 1.73396C16.5317 1.74563 16.5098 1.76458 16.4923 1.78062C16.4806 1.78792 16.469 1.79813 16.4602 1.80542V1.80687H16.4588C16.4354 1.82583 16.4136 1.84333 16.3873 1.86375V1.86521C16.3523 1.89438 16.3188 1.92208 16.2794 1.95562V1.95417H16.2765C16.1933 2.02271 16.1058 2.1 16.0052 2.18604V2.1875H16.0038C15.7573 2.40333 15.4642 2.68042 15.1361 3.01583L15.1142 3.03771L15.1083 3.04354C13.125 5.09542 9.99981 9.37125 9.67022 16.2808C9.64106 16.8525 9.64689 17.4081 9.67897 17.9492V17.9623C9.83793 20.685 10.6925 23.0096 11.7615 24.8981V24.8996C12.1873 25.6521 12.6467 26.336 13.1119 26.9485V26.95C14.719 29.0719 16.3596 30.329 16.7781 30.6338C17.4213 32.1256 17.3615 34.6865 17.3615 34.6865L18.3006 35C18.3006 35 18.1096 32.5194 18.3779 31.3221C18.4611 30.9473 18.6579 30.6279 18.8869 30.3567C19.0415 30.2473 19.4994 29.9177 20.0492 29.416C20.0754 29.3883 20.09 29.3635 20.1133 29.3373C22.3315 27.2694 26.4746 22.1769 25.0542 13.8804Z" fill="#47A248"/>
</svg>
