<svg width="35" height="35" viewBox="0 0 35 35" fill="none" xmlns="http://www.w3.org/2000/svg">
<g clip-path="url(#clip0)">
<path d="M25.9775 32.8159C25.8478 32.8845 25.855 32.9122 25.9848 32.8465C26.0228 32.8302 26.0574 32.807 26.0869 32.778C26.0869 32.7547 26.084 32.7576 25.9775 32.8159ZM26.2371 32.6788C26.1759 32.727 26.1759 32.7299 26.2503 32.692C26.2911 32.6716 26.3261 32.6482 26.3261 32.6409C26.3261 32.6132 26.3086 32.6205 26.2371 32.6788ZM26.4078 32.5753C26.3465 32.6234 26.3465 32.6263 26.4209 32.5884C26.4617 32.568 26.4967 32.5447 26.4967 32.5374C26.4967 32.5097 26.4792 32.517 26.4078 32.5753ZM26.5784 32.4732C26.5171 32.5213 26.5171 32.5243 26.5915 32.4863C26.6323 32.4659 26.6673 32.4426 26.6673 32.4353C26.6673 32.4076 26.6498 32.4149 26.5784 32.4732ZM26.8146 32.3201C26.695 32.3959 26.6571 32.447 26.7636 32.3886C26.8394 32.3449 26.9619 32.2516 26.9415 32.2486C26.8968 32.2678 26.8542 32.2918 26.8146 32.3201ZM16.354 0.00926241C16.2782 0.0165541 16.039 0.0398874 15.8232 0.0573874C10.8532 0.505096 6.19671 3.18697 3.24796 7.30968C1.61778 9.5725 0.55816 12.1955 0.159209 14.9557C0.019209 15.9168 0.00170898 16.2011 0.00170898 17.5049C0.00170898 18.8086 0.019209 19.0916 0.159209 20.0541C1.11004 26.6253 5.78692 32.1465 12.1292 34.1926C13.2653 34.5586 14.4625 34.808 15.8232 34.9582C16.354 35.0166 18.645 35.0166 19.1759 34.9582C21.5253 34.6986 23.5173 34.1168 25.4803 33.1149C25.7807 32.9603 25.839 32.9195 25.7982 32.8859C24.8393 31.619 23.8895 30.3454 22.9486 29.0651L20.15 25.2851L16.6442 20.0963C15.4785 18.3601 14.3016 16.6315 13.1136 14.9105C13.1005 14.9076 13.0859 17.2132 13.08 20.0278C13.0698 24.957 13.0669 25.1553 13.0042 25.272C12.9447 25.4083 12.838 25.5186 12.7038 25.5826C12.5944 25.638 12.4982 25.6482 11.9819 25.6482H11.3898L11.2323 25.549C11.1352 25.4878 11.0561 25.4017 11.0034 25.2997L10.9319 25.1451L10.9392 18.2866L10.9494 11.4251L11.0559 11.2924C11.1274 11.2084 11.2133 11.1377 11.3096 11.0838C11.4496 11.0153 11.505 11.008 12.0971 11.008C12.7957 11.008 12.9109 11.0357 13.0932 11.2341C14.5123 13.3461 15.9196 15.466 17.315 17.5938C19.5871 21.0384 22.6919 25.7416 24.2188 28.0516L26.9896 32.2486L27.1296 32.1568C28.4629 31.2699 29.6718 30.2091 30.7244 29.0024C32.9294 26.479 34.3593 23.3729 34.8428 20.057C34.9828 19.0959 35.0003 18.8116 35.0003 17.5078C35.0003 16.2041 34.9828 15.9211 34.8428 14.9586C33.8919 8.38739 29.215 2.86614 22.8728 0.820096C21.6875 0.442749 20.4669 0.187192 19.2298 0.0573874C18.9017 0.0238457 16.6398 -0.0140709 16.3569 0.0136374L16.354 0.00926241ZM23.5173 10.5938C23.5989 10.6348 23.6715 10.6917 23.7308 10.761C23.7902 10.8304 23.8351 10.9109 23.863 10.9978C23.8907 11.0868 23.8965 12.9884 23.8907 17.2745L23.8805 23.4257L22.7955 21.7632L21.7075 20.1007V15.6295C21.7075 12.7391 21.7207 11.1145 21.7411 11.0357C21.7658 10.9448 21.8085 10.8598 21.8666 10.7857C21.9247 10.7115 21.9971 10.6498 22.0794 10.6041C22.2194 10.5326 22.2705 10.5253 22.8086 10.5253C23.3146 10.5253 23.4036 10.5326 23.5173 10.5938Z" fill="black"/>
</g>
<defs>
<clipPath id="clip0">
<rect width="35" height="35" fill="white"/>
</clipPath>
</defs>
</svg>
