<svg width="35" height="35" viewBox="0 0 35 35" fill="none" xmlns="http://www.w3.org/2000/svg">
<g clip-path="url(#clip0)">
<path d="M17.4971 35C17.029 35 16.5623 34.8775 16.1525 34.6398L11.8708 32.1067C11.2321 31.7494 11.5442 31.6225 11.7542 31.5481C12.6073 31.2521 12.7794 31.1835 13.6908 30.6673C13.7856 30.6133 13.911 30.6337 14.0087 30.6921L17.2987 32.6448C17.4183 32.7104 17.586 32.7104 17.6954 32.6448L30.5215 25.2423C30.641 25.1737 30.7169 25.0367 30.7169 24.8952V10.0931C30.7169 9.94875 30.6396 9.81312 30.5171 9.74021L17.6969 2.34354C17.5787 2.275 17.4212 2.275 17.3017 2.34354L4.48437 9.74166C4.36041 9.81312 4.28166 9.95312 4.28166 10.0931V24.8952C4.28166 25.0367 4.36041 25.1708 4.48437 25.2379L7.99749 27.2679C9.90353 28.2217 11.0717 27.0987 11.0717 25.97V11.356C11.0717 11.149 11.2379 10.9871 11.445 10.9871H13.071C13.2737 10.9871 13.4429 11.1504 13.4429 11.356V25.97C13.4429 28.5148 12.0575 29.9731 9.64541 29.9731C8.90457 29.9731 8.31978 29.9731 6.69082 29.1696L3.32499 27.2344C2.49374 26.7546 1.98041 25.8562 1.98041 24.8952V10.0931C1.98041 9.13208 2.4952 8.23375 3.32499 7.75541L16.151 0.344165C16.9633 -0.11521 18.041 -0.11521 18.846 0.344165L31.6706 7.75541C32.5019 8.23521 33.0181 9.13208 33.0181 10.0931V24.8952C33.0181 25.8562 32.5019 26.7517 31.6706 27.2344L18.846 34.6398C18.4377 34.8775 17.9725 35 17.4971 35ZM27.8527 20.4065C27.8527 17.6356 25.9802 16.8977 22.0383 16.3771C18.0556 15.8506 17.6502 15.5779 17.6502 14.646C17.6502 13.876 17.9929 12.8479 20.9431 12.8479C23.5783 12.8479 24.5496 13.4152 24.9492 15.1915C24.9842 15.3592 25.1373 15.4817 25.3094 15.4817H26.9733C27.0769 15.4817 27.1746 15.4365 27.2446 15.3635C27.3146 15.2848 27.3525 15.1842 27.3423 15.0777C27.0842 12.0181 25.0512 10.5919 20.9431 10.5919C17.2856 10.5919 15.104 12.1348 15.104 14.7233C15.104 17.5306 17.274 18.3065 20.7842 18.6535C24.9842 19.0648 25.3094 19.6787 25.3094 20.5042C25.3094 21.9377 24.1587 22.5487 21.4565 22.5487C18.0629 22.5487 17.3162 21.6971 17.0654 20.0083C17.0362 19.8275 16.8817 19.6948 16.6965 19.6948H15.0383C14.8327 19.6948 14.6679 19.8581 14.6679 20.0637C14.6679 22.225 15.8433 24.8004 21.4565 24.8004C25.5223 24.8019 27.8527 23.2021 27.8527 20.4065Z" fill="#339933"/>
</g>
<defs>
<clipPath id="clip0">
<rect width="35" height="35" fill="white"/>
</clipPath>
</defs>
</svg>
