<svg width="35" height="35" viewBox="0 0 35 35" fill="none" xmlns="http://www.w3.org/2000/svg">
<path d="M17.5 14.3806C17.0904 14.3806 16.6847 14.4613 16.3063 14.6181C15.9278 14.7748 15.5839 15.0046 15.2943 15.2943C15.0046 15.5839 14.7748 15.9278 14.6181 16.3063C14.4613 16.6847 14.3806 17.0903 14.3806 17.5C14.3806 17.9096 14.4613 18.3153 14.6181 18.6937C14.7748 19.0722 15.0046 19.4161 15.2943 19.7057C15.5839 19.9954 15.9278 20.2251 16.3063 20.3819C16.6847 20.5387 17.0904 20.6194 17.5 20.6194C17.9096 20.6194 18.3153 20.5387 18.6937 20.3819C19.0722 20.2251 19.4161 19.9954 19.7057 19.7057C19.9954 19.4161 20.2252 19.0722 20.3819 18.6937C20.5387 18.3153 20.6194 17.9096 20.6194 17.5C20.6194 17.0903 20.5387 16.6847 20.3819 16.3063C20.2252 15.9278 19.9954 15.5839 19.7057 15.2943C19.4161 15.0046 19.0722 14.7748 18.6937 14.6181C18.3153 14.4613 17.9096 14.3806 17.5 14.3806ZM8.76167 23.7052L8.07333 23.5302C2.94292 22.2337 0 20.0331 0 17.4942C0 14.9552 2.94292 12.7546 8.07333 11.4581L8.76167 11.2846L8.95562 11.9671C9.47535 13.7575 10.1401 15.5026 10.9433 17.185L11.0906 17.4956L10.9433 17.8062C10.1388 19.4881 9.47397 21.2333 8.95562 23.0242L8.76167 23.7052ZM7.75396 13.0521C3.85437 14.1473 1.46125 15.8229 1.46125 17.4942C1.46125 19.1639 3.85437 20.8396 7.75396 21.9362C8.23087 20.4195 8.80669 18.9356 9.47771 17.4942C8.80592 16.053 8.23008 14.5691 7.75396 13.0521ZM26.2383 23.7052L26.0444 23.0212C25.5252 21.2309 24.8599 19.4862 24.0552 17.8048L23.9079 17.4942L24.0552 17.1835C24.8596 15.5014 25.5249 13.7563 26.0444 11.9656L26.2383 11.2831L26.9281 11.4567C32.0571 12.7531 35 14.9537 35 17.4942C35 20.0346 32.0571 22.2337 26.9281 23.5302L26.2383 23.7052ZM25.5223 17.4942C26.2223 19.0094 26.8013 20.4983 27.246 21.9362C31.1471 20.8396 33.5387 19.1639 33.5387 17.4942C33.5387 15.8229 31.1456 14.1487 27.246 13.0521C26.7698 14.5691 26.1939 16.053 25.5223 17.4942ZM7.74375 13.0448L7.54979 12.3637C6.1075 7.27999 6.545 3.63707 8.75 2.3654C10.9127 1.11707 14.385 2.59145 18.0235 6.32624L18.5194 6.8352L18.0235 7.34415C16.7307 8.68816 15.5494 10.1352 14.4915 11.671L14.2946 11.9525L13.9519 11.9817C12.0909 12.1284 10.2449 12.4259 8.43208 12.8712L7.74375 13.0448ZM10.5087 3.37603C10.1179 3.37603 9.77229 3.46061 9.48063 3.62832C8.03104 4.46395 7.77437 7.36895 8.77333 11.2889C10.3274 10.9432 11.9023 10.6992 13.4881 10.5583C14.4031 9.25732 15.4028 8.01797 16.4806 6.84832C14.2056 4.63311 12.0517 3.37603 10.5087 3.37603ZM24.4927 33.0706C24.4913 33.0706 24.4913 33.0706 24.4927 33.0706C22.4146 33.0706 19.7458 31.5058 16.9765 28.6621L16.4806 28.1531L16.9765 27.6441C18.269 26.2997 19.4498 24.8521 20.5071 23.3158L20.704 23.0344L21.0452 23.0052C22.9071 22.8593 24.7541 22.5623 26.5679 22.1171L27.2563 21.9435L27.4517 22.626C28.891 27.7069 28.455 31.3512 26.25 32.6214C25.7144 32.9243 25.1079 33.0793 24.4927 33.0706ZM18.5194 28.14C20.7944 30.3552 22.9483 31.6123 24.4913 31.6123H24.4927C24.8821 31.6123 25.2292 31.5277 25.5194 31.36C26.969 30.5244 27.2271 27.6179 26.2267 23.6979C24.6722 24.0441 23.0968 24.2882 21.5104 24.4285C20.5965 25.7304 19.5973 26.9703 18.5194 28.14ZM27.2563 13.0448L26.5679 12.8712C24.7544 12.4246 22.9073 12.1271 21.0452 11.9817L20.704 11.9525L20.5071 11.671C19.4503 10.1348 18.2695 8.68762 16.9765 7.34415L16.4806 6.8352L16.9765 6.32624C20.6135 2.5929 24.0844 1.11853 26.25 2.3654C28.455 3.63707 28.8925 7.27999 27.4517 12.3623L27.2563 13.0448ZM21.5104 10.5583C23.1758 10.71 24.7581 10.9564 26.2267 11.2889C27.2271 7.36895 26.969 4.46395 25.5194 3.62832C24.0785 2.79561 21.3704 4.07165 18.5194 6.84832C19.5967 8.01802 20.5959 9.25736 21.5104 10.5583ZM10.5087 33.0706C9.89303 33.0796 9.28603 32.9245 8.75 32.6214C6.545 31.3512 6.1075 27.7083 7.54979 22.626L7.74229 21.9435L8.43062 22.1171C10.115 22.5414 11.9729 22.8404 13.9504 23.0052L14.2931 23.0344L14.4885 23.3158C15.5466 24.8519 16.7279 26.2995 18.0206 27.6441L18.5165 28.1531L18.0206 28.6621C15.2527 31.5058 12.584 33.0706 10.5087 33.0706ZM8.77333 23.6979C7.77292 27.6179 8.03104 30.5244 9.48063 31.36C10.92 32.181 13.6267 30.9152 16.4806 28.14C15.4032 26.9694 14.4036 25.7296 13.4881 24.4285C11.9022 24.2883 10.3273 24.0442 8.77333 23.6979ZM17.5 24.6137C16.2998 24.6137 15.066 24.5612 13.8308 24.4592L13.4881 24.43L13.2913 24.1485C12.5926 23.1446 11.9358 22.1122 11.3225 21.0539C10.7111 19.9948 10.1438 18.9109 9.62208 17.8048L9.47625 17.4942L9.62208 17.1835C10.1437 16.0774 10.711 14.9934 11.3225 13.9344C11.9263 12.8902 12.5898 11.8489 13.2913 10.8398L13.4881 10.5583L13.8308 10.5292C16.2731 10.3221 18.7284 10.3221 21.1706 10.5292L21.5119 10.5583L21.7073 10.8398C23.1061 12.848 24.3339 14.97 25.3779 17.1835L25.5252 17.4942L25.3779 17.8048C24.3364 20.0196 23.1085 22.1418 21.7073 24.1485L21.5119 24.43L21.1706 24.4592C19.9354 24.5612 18.7002 24.6137 17.5 24.6137ZM14.296 23.0329C16.4544 23.1948 18.5456 23.1948 20.7054 23.0329C21.9112 21.2701 22.9818 19.4186 23.9079 17.4942C22.9834 15.5685 21.9123 13.7168 20.704 11.9554C18.5711 11.7935 16.4289 11.7935 14.296 11.9554C13.0872 13.7165 12.016 15.5683 11.0921 17.4942C12.0192 19.4184 13.0903 21.2699 14.296 23.0329Z" fill="#61DAFB"/>
</svg>
