<svg width="35" height="35" viewBox="0 0 35 35" fill="none" xmlns="http://www.w3.org/2000/svg">
<path d="M24.2564 24.0683C25.5237 23.959 26.5066 22.8433 26.4424 21.5104C26.3753 20.1775 25.2831 19.1071 23.9516 19.1071H23.8626C22.4874 19.1523 21.4156 20.3088 21.4593 21.6869C21.5031 22.3854 21.7889 22.9542 22.1797 23.3683C20.6514 26.3404 18.3574 28.525 14.8822 30.361C12.5445 31.5831 10.0756 32.044 7.67222 31.7158C5.66264 31.4329 4.09055 30.5346 3.12805 29.0938C1.68722 26.9077 1.55597 24.5496 2.75618 22.19C3.63264 20.4852 4.94222 19.2398 5.81722 18.6273C5.59847 18.06 5.33597 17.099 5.20472 16.3785C-1.26445 21.0117 -0.606739 27.3467 1.35909 30.3406C2.82326 32.5252 5.81722 33.9223 9.09409 33.9223C9.96764 33.9223 10.8864 33.8581 11.7818 33.6394C17.4635 32.5471 21.767 29.139 24.236 24.1135L24.2564 24.0683ZM32.0556 18.6054C28.6708 14.6285 23.6876 12.444 18.006 12.444H17.2622C16.8933 11.636 16.0416 11.1329 15.0791 11.1329H15.0135C13.6383 11.1329 12.5664 12.3142 12.6116 13.6894C12.6553 14.999 13.7695 16.0927 15.1024 16.0927H15.2103C16.1947 16.049 17.0464 15.4365 17.3949 14.5629H18.2043C21.5716 14.5629 24.7595 15.5458 27.666 17.4679C29.8928 18.9321 31.4897 20.8542 32.3851 23.1496C33.1697 25.0279 33.1274 26.864 32.3195 28.3952C31.0741 30.7971 28.9756 32.0658 26.2018 32.0658C24.4533 32.0658 22.7499 31.519 21.8749 31.1267C21.3514 31.5612 20.4764 32.2831 19.842 32.7206C21.7641 33.5927 23.7095 34.0958 25.5878 34.0958C29.8491 34.0958 33.0151 31.694 34.2183 29.3767C35.5278 26.7546 35.4199 22.3417 32.076 18.5617L32.0556 18.6054ZM9.46451 24.8529C9.5068 26.164 10.621 27.2563 11.9553 27.2563H12.0428C13.4414 27.2125 14.5118 26.056 14.4462 24.6779C14.4462 23.3669 13.3101 22.276 11.9772 22.276H11.8883C11.8008 22.276 11.671 22.276 11.5601 22.3183C9.74743 19.2587 8.9818 15.9804 9.26764 12.444C9.44118 9.77812 10.3162 7.46083 11.8883 5.53875C13.1993 3.89958 15.6683 3.09021 17.3512 3.04792C22.0703 2.95896 24.0376 8.83896 24.1893 11.1767L26.3739 11.8315C25.8708 4.66521 21.4156 0.905624 17.1543 0.905624C13.1556 0.905624 9.46451 3.81208 7.97701 8.07333C5.94555 13.755 7.27847 19.2165 9.7693 23.5871C9.55201 23.8715 9.42076 24.3731 9.46451 24.8529Z" fill="#764ABC"/>
</svg>
