<svg width="36" height="36" viewBox="0 0 36 36" fill="none" xmlns="http://www.w3.org/2000/svg">
<rect width="36" height="36" rx="3" fill="#CDEBFE"/>
<g clip-path="url(#clip0)">
<path d="M29.954 10.569C29.069 10.958 28.124 11.223 27.129 11.344C28.143 10.733 28.923 9.76997 29.292 8.62097C28.341 9.17597 27.287 9.57997 26.165 9.80497C25.269 8.84597 23.992 8.24597 22.574 8.24597C19.857 8.24597 17.654 10.449 17.654 13.163C17.654 13.553 17.699 13.928 17.781 14.287C13.691 14.094 10.066 12.13 7.64 9.16097C7.213 9.88297 6.974 10.722 6.974 11.636C6.974 13.346 7.844 14.849 9.162 15.732C8.355 15.706 7.596 15.484 6.934 15.116V15.177C6.934 17.562 8.627 19.551 10.88 20.004C10.467 20.115 10.031 20.175 9.584 20.175C9.27 20.175 8.969 20.145 8.668 20.089C9.299 22.042 11.113 23.466 13.272 23.506C11.592 24.825 9.463 25.611 7.17 25.611C6.78 25.611 6.391 25.588 6 25.544C8.189 26.938 10.768 27.753 13.557 27.753C22.611 27.753 27.556 20.257 27.556 13.767C27.556 13.558 27.556 13.347 27.541 13.137C28.502 12.448 29.341 11.577 30.001 10.589L29.954 10.569Z" fill="#1DA1F2"/>
</g>
<defs>
<clipPath id="clip0">
<rect width="24" height="24" fill="white" transform="translate(6 6)"/>
</clipPath>
</defs>
</svg>
