<svg width="35" height="35" viewBox="0 0 35 35" fill="none" xmlns="http://www.w3.org/2000/svg">
<path d="M0 17.5V35H35V0H0V17.5ZM28.2056 16.1058C29.0952 16.3275 29.7719 16.7227 30.3946 17.3673C30.7169 17.7115 31.1952 18.3385 31.2331 18.4902C31.2448 18.534 29.7223 19.5548 28.8006 20.1279C28.7671 20.1498 28.6329 20.0054 28.4842 19.7838C28.0321 19.1275 27.561 18.8446 26.8392 18.795C25.7775 18.7221 25.095 19.2777 25.1008 20.2052C25.0912 20.4333 25.1425 20.6598 25.2496 20.8615C25.4829 21.3442 25.9175 21.6344 27.2767 22.2221C29.7835 23.3013 30.8554 24.0115 31.5219 25.0221C32.2656 26.1494 32.4333 27.9504 31.9273 29.2892C31.3731 30.7446 29.995 31.7333 28.0554 32.06C27.456 32.1665 26.0342 32.1504 25.3896 32.0337C23.9838 31.7829 22.6508 31.0888 21.8283 30.1773C21.506 29.8229 20.8775 28.894 20.9169 28.8283C20.9329 28.805 21.0773 28.716 21.2377 28.6227C21.3952 28.5338 21.9829 28.194 22.5385 27.8717L23.5448 27.2883L23.7563 27.6004C24.0508 28.0496 24.694 28.6665 25.0833 28.8721C26.2004 29.4613 27.7331 29.3781 28.4885 28.7C28.6405 28.572 28.7607 28.4107 28.8399 28.2285C28.9191 28.0464 28.955 27.8484 28.945 27.65C28.945 27.2446 28.894 27.0667 28.6825 26.7604C28.4112 26.3725 27.8556 26.0458 26.2777 25.3604C24.4723 24.5831 23.695 24.1004 22.9833 23.3333C22.5392 22.8271 22.2111 22.2298 22.0223 21.5833C21.8896 21.089 21.856 19.8494 21.961 19.3506C22.3329 17.605 23.6498 16.3902 25.55 16.0285C26.1669 15.9119 27.6004 15.9556 28.2056 16.1058ZM19.9894 17.5671L20.001 19.0006H15.4438V31.9448H12.2208V19.0006H7.66792V17.5948C7.66792 16.816 7.68396 16.1656 7.70583 16.151C7.72333 16.1277 10.4956 16.116 13.8556 16.1219L19.9733 16.1394L19.9894 17.5671Z" fill="#007ACC"/>
</svg>
