<svg width="35" height="35" fill="none" xmlns="http://www.w3.org/2000/svg">
	<path d="M12.5 15.6l-.5-1.3-.4-1.3c0-.4-.2-.8-.3-1.1a18 18 0 01-.5 1.9l-.7 2.1-.6 2h3.7a20.6 20.6 0 00-.7-2.3zm12.5-.4a2 2 0 00-2 1.1 3 3 0 00-.3 1H27V17v-.5a2 2 0 00-2-1.4zM28.8.4H6.2A6.2 6.2 0 000 6.6v21.8c0 3.4 2.8 6.2 6.2 6.2h22.6c3.4 0 6.2-2.8 6.2-6.2V6.6C35 3.2 32.2.4 28.8.4zM18.5 24.5h-3l-.2-.1-1.2-3.5H8.6l-1 3.4-.4.2H4.5c-.2 0-.2 0-.2-.3L9 10.8l.2-.5v-1h4.2l5.3 15c0 .1 0 .2-.2.2zM30 18.7v.6l-.3.2h-7c0 .5.2 1 .5 1.3.2.4.6.7 1 .9.6.2 1.2.4 1.9.4a9 9 0 002.8-.5c0-.1.1 0 .1 0v2.5h-.1c-.5.3-1 .4-1.5.5a9.9 9.9 0 01-4.8-.3 5 5 0 01-1.9-1.4c-.4-.6-.8-1.2-1-2a7.5 7.5 0 010-4.4 6 6 0 011.2-2c.5-.5 1-1 1.7-1.3.7-.4 1.5-.5 2.5-.5.7 0 1.5.1 2.2.5a4 4 0 011.6 1.1 5.4 5.4 0 011.1 3.5v.9z" fill="#99F" />
</svg>
