<svg width="24" height="35" fill="none" xmlns="http://www.w3.org/2000/svg">
	<g clip-path="url(#clip0)">
		<path d="M6 35c3 0 6-3 6-6v-6H6c-3 0-6 3-6 6s3 6 6 6z" fill="#0ACF83" />
		<path d="M0 18c0-4 3-6 6-6h6v11H6c-3 0-6-2-6-5z" fill="#A259FF" />
		<path d="M0 6c0-3 3-6 6-6h6v12H6c-3 0-6-3-6-6z" fill="#F24E1E" />
		<path d="M12 0h5c3 0 6 3 6 6s-3 6-6 6h-5V0z" fill="#FF7262" />
		<path d="M23 18c0 3-3 5-6 5s-5-2-5-5c0-4 2-6 5-6s6 2 6 6z" fill="#1ABCFE" />
	</g>
	<defs>
		<clipPath id="clip0">
			<path fill="#fff" d="M0 0h23v35H0z" />
		</clipPath>
	</defs>
</svg>
