<svg width="35" height="35" fill="none" xmlns="http://www.w3.org/2000/svg">
	<g clip-path="url(#clip0)">
		<path d="M32 17a5 5 0 00-3-4l4-13H12l4 13a5 5 0 00-1 8 12 12 0 01-5 4c-2-1-2-2-2-3a5 5 0 10-4-2v1l-2 5c-1 3 0 6 2 8l5 1 8-3 5-2h3l4-2a7 7 0 003-8v-3zm-2 0a3 3 0 11-4-2h2a3 3 0 012 2zM15 2h16l-4 11h-1l-3-8-4 8h-1L15 2zm7 14l-1-2 2-4 2 4-2 2h-1zm-5-1h2l1 2a3 3 0 01-5 0 3 3 0 012-2zM7 15a3 3 0 110 5 3 3 0 010-5zm23 8a4 4 0 01-2 4l-4 1h-2l-6 3-7 2-3-1c-3-2-3-4-2-6l1-4h1c0 2 1 4 3 5h1a14 14 0 007-5 5 5 0 005-4h2a5 5 0 006 3v2z" fill="#C21325" />
	</g>
	<defs>
		<clipPath id="clip0">
			<path fill="#fff" d="M0 0h35v35H0z" />
		</clipPath>
	</defs>
</svg>
