<svg width="35" height="35" fill="none" xmlns="http://www.w3.org/2000/svg">
	<g clip-path="url(#clip0)">
		<path d="M26 32.8c-.2 0-.1.1 0 0zm.2-.1h.1zm.2-.1h.1zm.2-.1zm.2-.2c-.1.1-.1.1 0 0h.1zM16.4 0h-.6a17.5 17.5 0 1010 32.9L22.9 29l-2.8-3.8-3.5-5.2-3.5-5.2a281.8 281.8 0 00-.1 10.4l-.3.3H11.2a.6.6 0 01-.2-.3v-14l.3-.2h.8l1 .1a682 682 0 0111.1 16.9l2.8 4.1h.1A18 18 0 0034.8 20c.2-1 .2-1.3.2-2.6s0-1.6-.2-2.5A17.6 17.6 0 0016.4 0zm7.1 10.6a.7.7 0 01.4.4V23.4l-1.1-1.6-1-1.7v-4.5a135.6 135.6 0 010-4.8l.3-.2h1.4z" fill="#eee" />
	</g>
	<defs>
		<clipPath id="clip0">
			<path fill="#fff" d="M0 0h35v35H0z" />
		</clipPath>
	</defs>
</svg>
