<svg width="35" height="35" fill="none" xmlns="http://www.w3.org/2000/svg">
	<g clip-path="url(#clip0)">
		<path d="M17.5 35c-.5 0-1-.1-1.3-.4l-4.3-2.5c-.7-.4-.4-.5-.1-.6.8-.2 1-.3 1.9-.8h.3l3.3 2h.4l12.8-7.5.2-.3V10.1c0-.2 0-.3-.2-.4L17.7 2.3h-.4L4.5 9.7l-.2.4v14.8c0 .1 0 .3.2.3l3.5 2c1.9 1 3-.1 3-1.2V11.4c0-.3.2-.4.4-.4h1.7c.2 0 .3.2.3.4V26c0 2.5-1.3 4-3.8 4-.7 0-1.3 0-3-.8l-3.3-2A2.7 2.7 0 012 25V10.1c0-1 .5-1.9 1.3-2.3L16.2.3C17 0 18 0 18.8.3l12.9 7.5C32.5 8.2 33 9 33 10v14.8c0 1-.5 1.9-1.3 2.3l-12.9 7.4c-.4.3-.8.4-1.3.4zm10.4-14.6c0-2.8-2-3.5-5.9-4-4-.5-4.3-.8-4.3-1.8 0-.7.3-1.8 3.2-1.8 2.7 0 3.6.6 4 2.4 0 .2.2.3.4.3H27l.2-.1c.1-.1.2-.2.1-.3-.2-3-2.2-4.5-6.4-4.5-3.6 0-5.8 1.5-5.8 4.1 0 2.8 2.2 3.6 5.7 4 4.2.4 4.5 1 4.5 1.8 0 1.4-1.1 2-3.8 2-3.4 0-4.2-.8-4.4-2.5 0-.2-.2-.3-.4-.3H15c-.2 0-.3.2-.3.4 0 2.1 1.1 4.7 6.8 4.7 4 0 6.4-1.6 6.4-4.4z" fill="#393" />
	</g>
	<defs>
		<clipPath id="clip0">
			<path fill="#fff" d="M0 0h35v35H0z" />
		</clipPath>
	</defs>
</svg>
