<svg width="35" height="35" fill="none" xmlns="http://www.w3.org/2000/svg">
	<path d="M18 14a3 3 0 10-1 7 3 3 0 001-7zM9 24H8c-5-2-8-4-8-7 0-2 3-4 8-6h1v1l2 5v1l-2 5v1zM8 13c-4 1-7 3-7 4 0 2 3 4 7 5l1-5-1-4zm18 11v-1l-2-5v-1l2-5v-1h1c5 2 8 4 8 6 0 3-3 5-8 7h-1zm0-7l1 5c4-1 7-3 7-5 0-1-3-3-7-4l-1 4zM8 13v-1C6 7 7 4 9 2c2-1 5 1 9 4l1 1h-1l-4 5-6 1zm3-10L9 4v7h4l3-4-5-4zm13 30c-2 0-4-1-7-4l-1-1h1l4-5 6-1v1c2 5 1 8-1 10h-2zm-5-5l5 4 2-1v-7h-4l-3 4zm8-15l-6-1-4-5h-1l1-1c4-3 7-5 9-4 2 2 3 5 1 10v1zm-5-2h4V4c-2-1-5 0-7 3l3 4zM11 33H9c-2-2-3-5-1-10v-1l6 1 4 5h1l-1 1c-3 3-5 4-7 4zm-2-9v7c2 1 5 0 7-3l-3-4H9zm9 1l-4-1h-1a44 44 0 01-3-6l-1-1h1a44 44 0 013-6h9l3 6h1l-1 1-3 6h-1l-3 1zm-4-2h7l3-6-3-5h-7l-3 5 3 6z" fill="#61DAFB" />
</svg>
