<svg width="35" height="35" fill="none" xmlns="http://www.w3.org/2000/svg">
	<path d="M24.3 24a2.4 2.4 0 002.1-2.5c0-1.3-1.1-2.4-2.4-2.4h-.1a2.5 2.5 0 00-1.7 4.3 16 16 0 01-7.3 7 12 12 0 01-7.2 1.3c-2-.3-3.6-1.2-4.6-2.6a6.5 6.5 0 01-.3-7c.8-1.6 2.1-2.9 3-3.5l-.6-2.2c-6.5 4.6-5.8 11-3.8 14 1.4 2.1 4.4 3.5 7.7 3.5.9 0 1.8 0 2.7-.3 5.7-1 10-4.5 12.4-9.5zm7.8-5.4a18 18 0 00-14-6.2h-.8a2.4 2.4 0 00-2.2-1.3 2.4 2.4 0 00-2.5 2.6c0 1.3 1.2 2.4 2.5 2.4h.1c1 0 1.8-.7 2.2-1.5h.8c3.4 0 6.6 1 9.5 2.9a12 12 0 014.7 5.6 6 6 0 010 5.3 6.5 6.5 0 01-6.2 3.7c-1.7 0-3.5-.6-4.3-1l-2 1.6a14 14 0 005.7 1.4c4.2 0 7.4-2.4 8.6-4.7 1.3-2.6 1.2-7-2.1-10.8zM9.5 25c0 1.3 1.1 2.4 2.5 2.4s2.5-1.2 2.4-2.6c0-1.3-1-2.4-2.4-2.4h-.4c-1.9-3-2.6-6.3-2.3-9.9.1-2.6 1-5 2.6-6.9A7.8 7.8 0 0117.4 3c4.7 0 6.6 5.8 6.8 8.2l2.2.6C25.9 4.7 21.4 1 17.2 1c-4 0-7.7 3-9.2 7.2-2 5.7-.7 11.1 1.8 15.5a2 2 0 00-.3 1.3z" fill="#764ABC" />
</svg>
